:SAMPLES-PER-SECOND 30
:FULLY-SPECIFIED
:DEGREES
418
root  57.3344 39.4715 9.84643 176.419 30.9786 172.934
RightUpLeg  -9.06686 -14.6542 -11.0958
RightLeg  11.8934 -1.7198 1.4975
RightFoot  0.32195 0.0479639 -0.45508
RightToes  4.6566e-010 0 -3.6325e-017
Spine  8.6414 -1.38517 5.12227
Spine1  6.73971 -0.14958 -3.68463
HEad  -10.321 19.0135 -15.3431
LeftShoulder1  -0.283352 4.20818 -34.13
LeftArm  -8.34842 17.537 -27.2145
LeftForeArm  0.293891 -5.21009 -5.06926
LeftHand  0.0536627 7.01332 6.00984
RightShoulder  -0.805373 -5.71743 29.7427
RightArm  19.5019 -10.9367 47.6822
RightForeArm  -0.253113 8.36331 9.42464
RightHand  -0.610734 2.54814 -9.12579
LeftUpLeg  -6.79779 3.4947 2.91805
LeftLeg  13.0734 0.691398 0.656139
LeftFoot  -1.9625 0.105715 -1.1446
LeftToes  -4.59298e-010 2.08438e-011 -1.27151e-011
419
root  56.7217 39.4487 10.0929 177.37 25.4349 173.64
RightUpLeg  -8.52202 -15.5032 -12.2667
RightLeg  11.2523 -5.94245 1.30741
RightFoot  1.06827 -0.088652 0.887035
RightToes  4.6566e-010 0 -3.6325e-017
Spine  7.81895 -1.34856 5.07163
Spine1  7.21115 -0.31871 -2.8348
HEad  -9.3682 17.5125 -14.8534
LeftShoulder1  -0.427812 4.58986 -33.128
LeftArm  -6.72031 21.4362 -23.0925
LeftForeArm  0.779042 -9.33722 -5.58436
LeftHand  0.0329883 6.65918 5.5618
RightShoulder  -0.961686 -6.0803 30.7481
RightArm  21.6829 -15.0902 46.0505
RightForeArm  -4.90329 11.9308 8.56416
RightHand  -0.506822 2.22644 -7.91044
LeftUpLeg  -5.90691 4.5822 4.62234
LeftLeg  13.3896 2.48355 1.14211
LeftFoot  -2.35462 0.0265472 -0.153826
LeftToes  -4.59298e-010 2.08438e-011 -1.27151e-011
420
root  56.0452 39.4059 10.336 177.924 19.4678 174.312
RightUpLeg  -7.25776 -16.388 -13.6093
RightLeg  10.4093 -10.7506 1.06318
RightFoot  2.02996 -0.160521 1.48142
RightToes  4.6566e-010 0 -3.6325e-017
Spine  7.15445 -1.49845 4.25348
Spine1  7.91589 -0.868275 -1.40866
HEad  -8.29332 15.6597 -14.1429
LeftShoulder1  -0.315789 4.36198 -30.7256
LeftArm  -5.90359 24.7309 -21.5795
LeftForeArm  0.129186 -12.5914 -5.26187
LeftHand  -0.0189072 5.49441 5.42342
RightShoulder  -1.12438 -6.49512 31.0604
RightArm  25.141 -17.9837 44.6741
RightForeArm  -9.9783 16.2683 7.18267
RightHand  -0.433863 1.77653 -7.20071
LeftUpLeg  -5.00901 6.17029 6.42868
LeftLeg  13.271 3.54767 1.42755
LeftFoot  -2.83742 -0.0581864 1.01324
LeftToes  -4.59298e-010 2.08438e-011 -1.27151e-011
421
root  55.2653 39.3483 10.5602 178.487 13.912 174.761
RightUpLeg  -6.28981 -17.351 -15.1736
RightLeg  9.97651 -14.8631 0.804315
RightFoot  3.1585 -0.247726 2.12917
RightToes  4.6566e-010 0 -3.6325e-017
Spine  7.08055 -1.75461 3.41665
Spine1  7.3041 -1.47818 -0.245144
HEad  -6.56215 14.5278 -13.2469
LeftShoulder1  -0.3485 4.47675 -29.6656
LeftArm  -6.26937 26.8616 -19.8523
LeftForeArm  -0.559006 -15.1523 -4.61155
LeftHand  0.00663958 6.03003 5.73555
RightShoulder  -1.12651 -6.53159 30.6391
RightArm  28.8829 -19.6167 43.2517
RightForeArm  -12.6776 19.521 6.18765
RightHand  -0.44202 1.89746 -7.2169
LeftUpLeg  -4.32214 10.4163 8.1298
LeftLeg  12.7076 4.28361 1.22946
LeftFoot  -3.02371 -0.11496 1.831
LeftToes  -4.59298e-010 2.08438e-011 -1.27151e-011
422
root  54.4222 39.3014 10.7473 179.52 9.03006 174.987
RightUpLeg  -5.73823 -18.4723 -16.8637
RightLeg  9.13948 -18.3646 0.981808
RightFoot  4.79161 -0.259628 2.05065
RightToes  4.6566e-010 0 -3.6325e-017
Spine  6.21404 -1.776 1.84533
Spine1  6.93969 -2.04976 1.52602
HEad  -5.4573 13.6502 -12.9708
LeftShoulder1  -0.371065 4.54402 -29.4047
LeftArm  -8.9676 28.3748 -18.8729
LeftForeArm  -0.399817 -16.7587 -3.90355
LeftHand  -0.0417446 4.97357 5.12425
RightShoulder  -0.95549 -6.19406 28.9758
RightArm  30.6946 -19.95 42.5558
RightForeArm  -12.9471 21.0691 5.8071
RightHand  -0.457672 2.06783 -7.32412
LeftUpLeg  -3.90553 14.8579 9.37682
LeftLeg  11.6547 9.59554 1.52986
LeftFoot  -2.73046 -0.123877 1.85924
LeftToes  -4.59298e-010 2.08438e-011 -1.27151e-011
